<?xml version="1.0" encoding="utf-8"?>
<!-- Generator: Adobe Illustrator 27.5.0, SVG Export Plug-In . SVG Version: 6.00 Build 0)  -->
<svg version="1.1" xmlns="http://www.w3.org/2000/svg" xmlns:xlink="http://www.w3.org/1999/xlink" x="0px" y="0px"
	 viewBox="400 400 200 200" style="enable-background:new 0 0 600 600;" xml:space="preserve">
<g id="objects">
	<g>
		<path style="fill:#EA3442;" d="M541.67,437.184c4.568-5.293,3.661-13.344-1.977-17.479c-5.236-3.84-12.565-2.809-16.54,2.325
			c-7.552,9.755-20.879,26.279-38.172,43.864c-13.413-14.357-23.832-27.324-30.173-35.515c-3.974-5.134-11.304-6.165-16.54-2.325h0
			c-5.638,4.135-6.545,12.186-1.977,17.479c6.772,7.847,18.084,19.891,34.822,33.826c-14.041,12.995-29.958,25.786-47.058,36.136
			c-1.901,1.151-2.48,3.633-1.248,5.482c1.089,1.634,3.242,2.202,4.994,1.315c21.736-10.998,40.113-22.359,55.494-33.23
			c13.209,10.075,29.062,20.796,47.882,31.427c2.182,1.232,4.952,0.607,6.409-1.431v0c1.58-2.21,1.055-5.261-1.142-6.86
			c-14.3-10.406-27.489-22.106-39.083-33.56C519.404,461.505,533.689,446.432,541.67,437.184z"/>
	</g>
</g>
</svg>

